# xmcd
#
# Track frame offsets:
#	183
#	15165
#	29913
#	40308
#	52268
#	67523
#	80918
#	96315
#	106770
#	124353
#	135090
#	145360
#
# Disc length: 2148 seconds
#
# Revision: 0
# Processed by: cddbd v1.4PL0 Copyright (c) Steve Scherf et al.
# Submitted via: audiograbber 1.81.01
#
DISCID=a308620c
DTITLE=The Rokes - I Grandi Successi Originali cd1
DYEAR=1900
DGENRE=pop
TTITLE0=Ascolta nel vento
TTITLE1=Bisogna saper perdere
TTITLE2=C'è una strana espressione nei tuoi occhi
TTITLE3=Cercate di abbracciare tutto il mondo come noi
TTITLE4=Il vento (When the wind arises)
TTITLE5=E la pioggia che và
TTITLE6=Eccola di nuovo
TTITLE7=Eravamo amici
TTITLE8=Finchè c'è musica mi tengo sù
TTITLE9=Grazie a te
TTITLE10=Chè colpa abbiamo noi
TTITLE11=Io vivrò senza te
EXTD=
EXTT0=
EXTT1=
EXTT2=
EXTT3=
EXTT4=
EXTT5=
EXTT6=
EXTT7=
EXTT8=
EXTT9=
EXTT10=
EXTT11=
PLAYORDER=
